<svg width="50" height="34" viewBox="0 0 50 34" fill="none" xmlns="http://www.w3.org/2000/svg">
<path d="M13.3013 24.2941C13.3013 28.017 10.3237 31.035 6.65067 31.035C2.97761 31.035 0 28.017 0 24.2941C0 20.5712 2.97761 17.5532 6.65067 17.5532C10.3237 17.5532 13.3013 20.5712 13.3013 24.2941Z" fill="#F7B731"/>
<path d="M9.23316 12.5253C7.33104 9.18601 8.26757 5.02862 11.325 3.23949C14.3824 1.45036 18.4028 2.70699 20.305 6.04626L29.0934 21.4747C30.9955 24.8139 30.0589 28.9713 27.0015 30.7605C23.9442 32.5496 19.9237 31.293 18.0215 27.9537L9.23316 12.5253Z" fill="#F7B731"/>
<path d="M26.3347 12.5253C24.4326 9.18601 25.3691 5.02862 28.4265 3.23949C31.4839 1.45036 35.5044 2.70699 37.4065 6.04626L46.1949 21.4747C48.097 24.8139 47.1605 28.9713 44.1031 30.7605C41.0457 32.5496 37.0252 31.293 35.1231 27.9537L26.3347 12.5253Z" fill="#F7B731"/>
</svg>
